<svg width="448" height="320" viewBox="0 0 448 320" fill="none" xmlns="http://www.w3.org/2000/svg">
<path d="M448 16C448 20.2435 446.314 24.3131 443.314 27.3137C440.313 30.3143 436.243 32 432 32H16C11.7565 32 7.68687 30.3143 4.68629 27.3137C1.68571 24.3131 0 20.2435 0 16C0 11.7565 1.68571 7.68688 4.68629 4.68629C7.68687 1.68571 11.7565 0 16 0H432C436.243 0 440.313 1.68571 443.314 4.68629C446.314 7.68688 448 11.7565 448 16ZM368 144H16C11.7565 144 7.68687 145.686 4.68629 148.686C1.68571 151.687 0 155.757 0 160C0 164.243 1.68571 168.313 4.68629 171.314C7.68687 174.314 11.7565 176 16 176H368C372.243 176 376.313 174.314 379.314 171.314C382.314 168.313 384 164.243 384 160C384 155.757 382.314 151.687 379.314 148.686C376.313 145.686 372.243 144 368 144ZM224 288H16C11.7565 288 7.68687 289.686 4.68629 292.686C1.68571 295.687 0 299.757 0 304C0 308.243 1.68571 312.313 4.68629 315.314C7.68687 318.314 11.7565 320 16 320H224C228.243 320 232.313 318.314 235.314 315.314C238.314 312.313 240 308.243 240 304C240 299.757 238.314 295.687 235.314 292.686C232.313 289.686 228.243 288 224 288Z" fill="white"/>
</svg>
