<svg width="655" height="192" viewBox="0 0 655 192" fill="none" xmlns="http://www.w3.org/2000/svg">
<path d="M542.13 174.549L540.48 174.529V176.459H541.94C542.22 176.459 542.45 176.369 542.64 176.189C542.83 176.009 542.92 175.779 542.92 175.489C542.91 174.959 542.65 174.639 542.13 174.549Z" fill="white"/>
<path d="M542.56 170.489C542.56 170.189 542.47 169.969 542.28 169.809C542.09 169.659 541.87 169.579 541.62 169.579H540.47V171.399L541.81 171.379C542.31 171.309 542.56 171.009 542.56 170.489Z" fill="white"/>
<path d="M577.41 170.01H576.02V172.21H577.41C577.68 172.21 577.9 172.11 578.09 171.91C578.28 171.71 578.37 171.44 578.37 171.11C578.37 170.78 578.28 170.51 578.09 170.31C577.9 170.11 577.68 170.01 577.41 170.01Z" fill="white"/>
<path d="M505.31 174.96H507.33L506.32 170.8L505.31 174.96Z" fill="white"/>
<path d="M493.54 170.01H492.15V172.21H493.54C493.81 172.21 494.03 172.11 494.22 171.91C494.41 171.71 494.5 171.44 494.5 171.11C494.5 170.78 494.41 170.51 494.22 170.31C494.03 170.11 493.8 170.01 493.54 170.01Z" fill="white"/>
<path d="M644.73 1.00953C644.45 0.929529 644.22 0.689531 643.97 0.519531C433.09 0.519531 222.21 0.519531 11.33 0.519531C10.63 0.839531 9.94003 1.17953 9.22003 1.45953C4.99003 3.14953 2.26003 6.17953 1.01003 10.5495C0.930029 10.8295 0.690029 11.0595 0.530029 11.3195C0.530029 67.8795 0.530029 124.44 0.530029 181C0.860029 181.74 1.20003 182.47 1.51003 183.23C3.19003 187.37 6.20003 190.01 10.45 191.3C10.77 191.4 11.04 191.64 11.33 191.81C222.21 191.81 433.09 191.81 643.97 191.81C644.67 191.5 645.36 191.16 646.08 190.87C650.31 189.19 653.03 186.15 654.29 181.78C654.37 181.5 654.61 181.26 654.77 181C654.77 124.44 654.77 67.8795 654.77 11.3195C654.46 10.6095 654.13 9.90953 653.84 9.19953C652.14 4.97953 649.1 2.26953 644.73 1.00953ZM626.97 57.9495C619.73 64.7695 612.68 71.4195 605.51 78.1795C601.58 71.4095 597.71 64.7395 593.77 57.9495C604.85 57.9495 615.77 57.9495 626.97 57.9495ZM354.1 57.9595C366.52 57.9595 378.93 57.9595 391.49 57.9595C391.49 90.4095 391.49 122.79 391.49 155.25C379.03 155.25 366.61 155.25 354.1 155.25C354.1 122.85 354.1 90.4395 354.1 57.9595ZM333.89 10.2495C333.89 67.5195 333.89 124.8 333.89 182.07C333.89 183.67 333.89 183.67 332.25 183.67C279.21 183.67 226.18 183.67 173.14 183.67C120.3 183.67 67.47 183.66 14.63 183.69C11.91 183.69 10.05 182.57 8.98003 180.1C8.81003 179.71 8.74003 179.26 8.67003 178.84C8.62003 178.53 8.65003 178.2 8.65003 177.88C8.65003 123.41 8.67003 68.9295 8.60003 14.4595C8.60003 11.4795 11.2 8.59953 14.49 8.60953C59.65 8.67953 104.8 8.65953 149.96 8.65953C210.55 8.65953 271.15 8.65953 331.74 8.65953C332.14 8.65953 332.54 8.68953 332.94 8.65953C333.69 8.59953 333.96 8.94953 333.87 9.65953C333.87 9.83953 333.89 10.0495 333.89 10.2495ZM362.35 170.01H359.48V179.78H356V170.01H353.13V166.26H362.35V170.01ZM370.35 179.78H366.87V166.26H370.35V179.78ZM379.41 175.38C379.94 176 380.64 176.31 381.5 176.31C382.02 176.31 382.49 176.18 382.9 175.92C383.31 175.66 383.62 175.31 383.81 174.86L386.84 176.79C386.31 177.81 385.56 178.61 384.61 179.21C383.66 179.8 382.62 180.1 381.5 180.1C379.67 180.1 378.15 179.42 376.94 178.07C375.73 176.72 375.13 175.04 375.13 173.03C375.13 171.02 375.73 169.34 376.94 167.99C378.15 166.64 379.66 165.96 381.5 165.96C382.62 165.96 383.66 166.26 384.61 166.85C385.56 167.44 386.3 168.24 386.84 169.25L383.81 171.18C383.61 170.74 383.31 170.39 382.89 170.14C382.47 169.88 382.01 169.75 381.5 169.75C380.64 169.75 379.95 170.06 379.41 170.68C378.87 171.3 378.61 172.08 378.61 173.04C378.61 174 378.87 174.76 379.41 175.38ZM397.68 179.78L394.65 173.99V179.78H391.17V166.26H394.65V171.66L397.5 166.26H401.36L397.74 172.83L401.53 179.78H397.68ZM413.72 179.78H405.72V166.26H413.63V169.78H409.2V171.25H413.2V174.73H409.2V176.24H413.72V179.78ZM427.11 170.01H424.24V179.78H420.76V170.01H417.89V166.26H427.11V170.01ZM405.58 134.94C403.64 135.07 401.68 134.96 399.63 134.96C399.63 109.25 399.63 83.6395 399.63 57.9295C408.89 57.4795 417.21 59.9095 424.45 65.5695C433.02 72.2695 437.69 81.1995 438.78 91.9795C439.65 100.5 438.56 108.75 434.53 116.41C428.41 128.04 418.6 134.03 405.58 134.94ZM442.06 179.78H438.58V166.26H442.06V179.78ZM457.37 179.78H454.59L450.76 173.6V179.78H447.28V166.26H450.06L453.89 172.44V166.26H457.37V179.78ZM476.49 175.59H469.53V172.23H476.49V175.59ZM496.7 174.64C495.85 175.52 494.8 175.96 493.54 175.96H492.15V179.78H488.67V166.26H493.54C494.8 166.26 495.86 166.7 496.7 167.58C497.55 168.46 497.97 169.64 497.97 171.11C497.97 172.58 497.55 173.76 496.7 174.64ZM508.49 179.78L508.07 178.04H504.56L504.14 179.78H500.4L504.28 166.26H508.35L512.23 179.78H508.49ZM521.57 174.65V179.79H518.09V174.65L513.97 166.27H517.83L519.83 171.02L521.83 166.27H525.69L521.57 174.65ZM520.7 88.3895C513.77 92.7595 504.91 90.1495 500.95 82.6895C498.73 78.5095 498.48 74.0795 499.38 69.5195C499.45 69.1695 499.53 68.8195 499.6 68.4595C499.61 68.3895 499.6 68.3095 499.59 68.2295C499.48 68.1395 499.37 68.0495 499.26 67.9695C497.07 70.2195 494.84 72.4395 492.71 74.7395C492.4 75.0695 492.42 75.7895 492.42 76.3295C492.41 95.1295 492.41 113.92 492.41 132.72C492.41 133.27 492.41 133.82 492.41 134.42C479.92 134.42 467.58 134.42 455.17 134.42C455.17 108.94 455.17 83.4895 455.17 57.9595C467.55 57.9595 479.92 57.9595 492.43 57.9595C492.43 61.5895 492.43 65.1595 492.43 68.7995C494.56 66.8895 496.51 65.0095 498.6 63.2995C502.44 60.1595 506.78 58.1695 511.85 58.1595C520.67 58.1395 527.4 64.5395 527.81 73.3495C528.1 79.6195 526.18 84.9195 520.7 88.3895ZM545.3 178.72C544.57 179.43 543.52 179.78 542.14 179.78H536.99V166.26H541.82C543.19 166.26 544.23 166.59 544.95 167.25C545.67 167.91 546.03 168.85 546.03 170.07C546.03 171.24 545.62 172.16 544.81 172.81C545.85 173.47 546.37 174.47 546.37 175.8C546.39 177.04 546.02 178.01 545.3 178.72ZM557.12 174.65V179.79H553.64V174.65L549.52 166.27H553.38L555.38 171.02L557.38 166.27H561.24L557.12 174.65ZM580.58 174.64C579.73 175.52 578.68 175.96 577.42 175.96H576.03V179.78H572.55V166.26H577.42C578.68 166.26 579.74 166.7 580.58 167.58C581.43 168.46 581.85 169.64 581.85 171.11C581.84 172.58 581.42 173.76 580.58 174.64ZM596.28 179.78H592.8V174.8H589.84V179.78H586.36V166.26H589.84V171.05H592.8V166.26H596.28V179.78ZM612.09 178.06C610.84 179.42 609.32 180.1 607.51 180.1C605.7 180.1 604.17 179.42 602.93 178.06C601.68 176.7 601.06 175.02 601.06 173.03C601.06 171.04 601.68 169.36 602.93 168C604.18 166.64 605.7 165.96 607.51 165.96C609.32 165.96 610.85 166.64 612.09 168C613.34 169.36 613.96 171.04 613.96 173.03C613.96 175.02 613.34 176.7 612.09 178.06ZM597.12 134.51C596.06 134.51 595.51 134.21 595.01 133.25C590.31 124.18 585.55 115.13 580.8 106.08C580.64 105.77 580.43 105.48 580.06 104.88C580.06 114.92 580.06 124.61 580.06 134.39C567.59 134.39 555.25 134.39 542.82 134.39C542.82 99.9095 542.82 65.4195 542.82 30.8395C555.2 30.8395 567.58 30.8395 580.1 30.8395C580.1 54.5795 580.1 78.3395 580.1 102.44C588.73 94.1995 597.07 86.2295 605.51 78.1695C616.7 96.9295 627.84 115.6 639.09 134.48C638.41 134.48 637.99 134.48 637.56 134.48C624.08 134.48 610.6 134.47 597.12 134.51ZM628.83 179.78H626.05L622.22 173.6V179.78H618.74V166.26H621.52L625.35 172.44V166.26H628.83V179.78ZM642.05 179.78H634.05V166.26H641.96V169.78H637.53V171.25H641.53V174.73H637.53V176.24H642.05V179.78Z" fill="white"/>
<path d="M607.51 169.739C606.65 169.739 605.94 170.049 605.38 170.679C604.82 171.299 604.54 172.089 604.54 173.029C604.54 173.969 604.82 174.749 605.38 175.379C605.94 176.009 606.65 176.319 607.51 176.319C608.37 176.319 609.08 176.009 609.64 175.379C610.2 174.759 610.48 173.969 610.48 173.029C610.48 172.089 610.2 171.309 609.64 170.679C609.08 170.049 608.37 169.739 607.51 169.739Z" fill="white"/>
<path d="M106.39 77.8293C90.38 63.1893 74.24 48.6793 58.32 33.9393C55.64 31.4593 53.12 30.5093 49.53 30.9193C38.44 32.1693 29.91 37.3493 25.33 47.5193C19.6 60.2593 21.41 72.5693 29.57 83.8493C34.65 90.8793 41 96.7593 47.32 102.649C59.41 113.929 72.54 123.939 85.59 134.059C85.85 134.269 86.23 134.449 86.55 134.449C93.14 134.439 99.44 133.319 104.99 129.469C114.15 123.099 118.24 114.119 118.55 102.069C118.31 100.459 118.09 97.7393 117.5 95.1093C115.88 88.0293 111.59 82.5893 106.39 77.8293Z" fill="white"/>
<path d="M278.2 134.379C290.8 134.379 303.29 134.379 315.79 134.379C315.79 99.8191 315.79 65.3591 315.79 30.8291C303.23 30.8291 290.73 30.8291 278.2 30.8291C278.2 65.3691 278.2 99.8891 278.2 134.379Z" fill="white"/>
<path d="M133.14 155.219C145.68 155.219 158.13 155.219 170.58 155.219C170.58 122.749 170.58 90.3695 170.58 57.9395C158.09 57.9395 145.66 57.9395 133.14 57.9395C133.14 90.4395 133.14 122.849 133.14 155.219Z" fill="white"/>
<path d="M178.69 57.9499C178.69 83.6399 178.69 109.25 178.69 134.96C180.72 134.96 182.68 135.06 184.62 134.94C195.58 134.26 204.7 129.86 210.94 120.71C219 108.9 220.19 95.8999 215.7 82.5699C210.4 66.7999 194.88 56.7199 178.69 57.9499Z" fill="white"/>
<path d="M263 57.8998C254.89 58.8498 247.74 62.0498 242.28 68.1398C230.88 80.8598 228.34 95.6098 234.03 111.46C239.03 125.38 249.27 133.16 264.23 134.28C266.2 134.43 268.18 134.3 270.19 134.3C270.19 108.7 270.19 83.1898 270.19 57.5898C269.75 57.5698 269.36 57.5198 268.97 57.5398C266.99 57.6398 264.98 57.6698 263 57.8998Z" fill="#05D3A8"/>
<path d="M22.73 134.429C39.38 134.429 55.95 134.429 72.84 134.429C56.03 119.789 39.45 105.349 22.73 90.7891C22.73 105.499 22.73 119.939 22.73 134.429Z" fill="white"/>
<path d="M112.9 30.1797C97.51 30.1797 82.2 30.1797 66.63 30.1797C82.12 44.3197 97.43 58.2997 112.9 72.4197C112.9 58.1397 112.9 44.1697 112.9 30.1797Z" fill="white"/>
</svg>
